<svg xmlns="http://www.w3.org/2000/svg" xmlns:xlink="http://www.w3.org/1999/xlink" viewBox="0,0,256,256" width="100px" height="100px" fill-rule="nonzero"><g fill="#ffffff" fill-rule="nonzero" stroke="none" stroke-width="1" stroke-linecap="butt" stroke-linejoin="miter" stroke-miterlimit="10" stroke-dasharray="" stroke-dashoffset="0" font-family="none" font-weight="none" font-size="none" text-anchor="none" style="mix-blend-mode: normal"><g transform="scale(3.2,3.2)"><path d="M16,11v21h-4v20h-5v2h5h4v4h-6v2h6h7v4h-10v2h10h7v4h20v-4h7h10v-2h-10v-4h7h6v-2h-6v-4h4h5v-2h-5v-20h-4v-21h-9v6h-6v6h-7h-3h-8v-6h-6v-6zM18,13h5v6h6v6h4v2h2v-2h4v2h2v-2h1h3v2h2v-2h4v-6h6v-6h5v21h1h3v18h-4h-2v2h2v4h-7h-2v2h2v4h-7h-2v2h2v2h-16v-2h2v-2h-2h-7v-4h2v-2h-2h-7v-4h2v-2h-2h-4v-18h4zM22,22v8h1h1h3v-2h-3v-6zM56,22v6h-3v2h5v-1v-1v-6zM33,29v2h2v-2zM39,29v2h2v-2zM45,29v2h2v-2zM39,33v2h2v-2zM23,36v2v1h-2v2h2v1v2h9v-2v-1h2v-2h-2v-1v-2zM48,36v2v1h-2v2h2v1v2h9v-2v-1h2v-2h-2v-1v-2zM25,38h5v2v2h-5v-2zM50,38h5v2v2h-5v-2zM35,50v2h4v8h2v-8h4v-2zM41,60v2h2v-2zM39,60h-2v2h2zM22,52v2h2v-2zM26,52v2h2v-2zM30,52v2h2v-2zM48,52v2h2v-2zM52,52v2h2v-2zM56,52v2h2v-2zM29,58v2h2v-2zM49,58v2h2v-2z"></path></g></g></svg>